<?xml version="1.0"?>
<svg xmlns="http://www.w3.org/2000/svg" xmlns:xlink="http://www.w3.org/1999/xlink" xmlns:svgjs="http://svgjs.com/svgjs" version="1.1" width="512" height="512" x="0" y="0" viewBox="0 0 496 496" style="enable-background:new 0 0 512 512" xml:space="preserve" class=""><g>
<g xmlns="http://www.w3.org/2000/svg">
	<path style="" d="M383.428,152c-1.552,0-3.112-0.456-4.464-1.36c-2.616-1.76-3.952-4.88-3.424-7.992L380.796,112   h-21.368c-13.232,0-24-10.768-24-24V24c0-13.232,10.768-24,24-24h112c13.232,0,24,10.768,24,24v64c0,13.232-10.768,24-24,24   h-21.704l-62.056,38.784C386.372,151.592,384.9,152,383.428,152z" fill="#dcd9c6" data-original="#f0bc5e"/>
	
		<rect x="51.719" y="268.281" transform="matrix(-0.7071 0.7071 -0.7071 -0.7071 326.9645 469.0091)" style="" width="29.256" height="67.879" fill="#dcd9c6" data-original="#f0bc5e"/>
	<polygon style="" points="208.404,464.976 231.428,443.88 183.428,395.88 160.26,416.832  " fill="#dcd9c6" data-original="#f0bc5e"/>
</g>
<path xmlns="http://www.w3.org/2000/svg" d="M384.004,376.432c-6.472-19.4-22.984-33.72-43.112-37.384l-53.464-9.728v-4.144c9.304-5.4,17.4-12.624,23.848-21.176h16.152  c13.232,0,24-10.768,24-24v-96c0-57.344-46.656-104-104-104s-104,46.656-104,104v56c0,15.424,10.968,28.328,25.512,31.336  c4.488,22.992,18.856,42.448,38.488,53.84v4.144l-53.472,9.728c-20.12,3.664-36.64,17.984-43.104,37.384l-3.2,9.608l-27.248-27.248  c-3.12-3.12-3.12-8.2,0-11.32l31.6-31.592l-59.312-59.312L16.98,292.28c-10.576,10.576-16.4,24.64-16.4,39.6  s5.824,29.016,16.4,39.592l108.12,108.12C135.676,490.168,149.74,496,164.7,496s29.016-5.832,39.344-16.168l38.968-35.704  L230.86,432h171.664L384.004,376.432z M247.428,356.688l-24-24v-0.376c7.584,2.384,15.64,3.688,24,3.688  c8.36,0,16.416-1.304,24-3.688v0.376L247.428,356.688z M327.428,288H320.7c2.32-5.288,4.08-10.864,5.216-16.664  c3.424-0.712,6.576-2.072,9.512-3.784V280C335.428,284.416,331.836,288,327.428,288z M327.428,226.224c4.76,2.776,8,7.88,8,13.776  s-3.24,11-8,13.776V226.224z M159.428,240c0-5.896,3.24-11,8-13.776v27.552C162.668,251,159.428,245.896,159.428,240z M167.428,200  v9.136c-2.848,0.744-5.52,1.864-8,3.312V184c0-48.52,39.48-88,88-88s88,39.48,88,88v28.448c-2.48-1.448-5.152-2.576-8-3.312V200h-8  c-23.656,0-45.896-9.216-62.632-25.944l-9.368-9.368l-9.368,9.368C221.324,190.784,199.084,200,175.428,200H167.428z M183.428,256  v-40.304c24.024-1.808,46.424-11.72,64-28.432c17.576,16.712,39.976,26.632,64,28.432V256c0,11.664-3.184,22.576-8.656,32h-55.344  v16h42.192c-11.28,9.928-26.024,16-42.192,16C212.14,320,183.428,291.288,183.428,256z M89.372,315.88l-8.688,8.688L43.996,287.88  l8.688-8.688L89.372,315.88z M164.684,480c-10.68,0-20.728-4.168-28.288-11.72L28.276,360.168  c-7.552-7.552-11.712-17.6-11.712-28.28c0-10.688,4.16-20.736,11.712-28.288l4.4-4.4l36.688,36.688l-0.288,0.288  c-9.352,9.36-9.352,24.584,0,33.944l57.368,57.368c4.536,4.528,10.56,7.032,16.976,7.032s12.44-2.496,16.68-6.752l0.6-0.536  l36.856,36.856l-4.592,4.208C185.412,475.832,175.364,480,164.684,480z M209.364,453.256l-36.776-36.776l10.568-9.552l36.712,36.712  L209.364,453.256z M214.86,416l-31.16-31.16l-34.624,31.32c-3.016,3.032-8.288,3.032-11.312,0l-17.472-17.472l5.728-17.2  c4.616-13.856,16.416-24.088,30.792-26.712l55.92-10.16l34.696,34.696l34.688-34.688l55.912,10.16  c14.376,2.624,26.176,12.848,30.792,26.712L380.332,416H214.86z" fill="#1b1924" data-original="#000000" style="" class=""/>
<rect xmlns="http://www.w3.org/2000/svg" x="367.428" y="32" width="96" height="16" fill="#1b1924" data-original="#000000" style="" class=""/>
<rect xmlns="http://www.w3.org/2000/svg" x="367.428" y="64" width="64" height="16" fill="#1b1924" data-original="#000000" style="" class=""/>
<rect xmlns="http://www.w3.org/2000/svg" x="447.428" y="64" width="16" height="16" fill="#1b1924" data-original="#000000" style="" class=""/>
<path xmlns="http://www.w3.org/2000/svg" d="M75.548,198.856l-8.232-13.72l-21.68,13.008C68.308,105.88,151.276,40,247.428,40c21.016,0,41.752,3.12,61.632,9.28  L313.796,34c-21.416-6.64-43.744-10-66.368-10C142.9,24,52.86,96.304,29.452,197.16l-15.16-25.272l-13.72,8.232l28.12,46.856  L75.548,198.856z" fill="#1b1924" data-original="#000000" style="" class=""/>
<path xmlns="http://www.w3.org/2000/svg" d="M491.548,177.144l-46.856-28.12l-28.12,46.856l13.72,8.232l14-23.336c7.368,21.56,11.136,44.112,11.136,67.224  c0,47.576-16.48,94.088-46.392,130.96l12.424,10.08c32.224-39.712,49.968-89.808,49.968-141.04c0-24.472-3.944-48.368-11.632-71.248  l23.512,14.104L491.548,177.144z" fill="#1b1924" data-original="#000000" style="" class=""/>
<g xmlns="http://www.w3.org/2000/svg">
</g>
<g xmlns="http://www.w3.org/2000/svg">
</g>
<g xmlns="http://www.w3.org/2000/svg">
</g>
<g xmlns="http://www.w3.org/2000/svg">
</g>
<g xmlns="http://www.w3.org/2000/svg">
</g>
<g xmlns="http://www.w3.org/2000/svg">
</g>
<g xmlns="http://www.w3.org/2000/svg">
</g>
<g xmlns="http://www.w3.org/2000/svg">
</g>
<g xmlns="http://www.w3.org/2000/svg">
</g>
<g xmlns="http://www.w3.org/2000/svg">
</g>
<g xmlns="http://www.w3.org/2000/svg">
</g>
<g xmlns="http://www.w3.org/2000/svg">
</g>
<g xmlns="http://www.w3.org/2000/svg">
</g>
<g xmlns="http://www.w3.org/2000/svg">
</g>
<g xmlns="http://www.w3.org/2000/svg">
</g>
</g></svg>
