<?xml version="1.0"?>
<svg xmlns="http://www.w3.org/2000/svg" xmlns:xlink="http://www.w3.org/1999/xlink" xmlns:svgjs="http://svgjs.com/svgjs" version="1.1" width="512" height="512" x="0" y="0" viewBox="0 0 512 512" style="enable-background:new 0 0 512 512" xml:space="preserve" class=""><g><g xmlns="http://www.w3.org/2000/svg"><g><path clip-rule="evenodd" d="m235.793 25.293c0-9.79-7.995-17.793-17.775-17.793h-170.213c-9.781 0-17.775 8.002-17.775 17.793v76.051c0 9.79 7.995 17.793 17.775 17.793h170.212c9.781 0 17.775-8.002 17.775-17.793v-76.051z" fill="#b5c1b4" fill-rule="evenodd" data-original="#ffdb4e" style="" class=""/></g><g><path clip-rule="evenodd" d="m378.988 180.46c-3.26-12.259-9.611-22.844-17.974-31.215-17.01-16.97-42.326-24.66-67.161-17.991-12.247 3.263-22.85 9.62-31.185 17.991-16.953 17.026-24.636 42.367-18.002 67.226 6.492 24.177 24.92 41.97 47.231 48.667 16.783 5.562 42.978 19.552 66.991-15.409 14.147-13.054 22.51-31.612 22.481-51.249.001-5.96-.765-12.004-2.381-18.02z" fill="#dcd9c6" fill-rule="evenodd" data-original="#b1d7fe" style="" class=""/></g><g><path clip-rule="evenodd" d="m147.71 279.837c-20.213-35.074-65.035-47.106-100.075-26.845s-47.06 65.098-26.819 100.172c20.213 35.103 65.035 47.106 100.075 26.845 35.041-20.233 47.061-65.098 26.819-100.172z" fill="#b5c1b4" fill-rule="evenodd" data-original="#ff8389" style="" class=""/></g><g><path clip-rule="evenodd" d="m110.657 301.262c-8.42-14.614-27.046-19.609-41.646-11.181-14.572 8.428-19.561 27.1-11.141 41.686s27.046 19.58 41.646 11.152c14.571-8.427 19.561-27.071 11.141-41.657z" fill="#e7ecf1" fill-rule="evenodd" data-original="#e7ecf1" style=""/></g><g><path clip-rule="evenodd" d="m371.674 286.562v-16.998c0-10.613-5.698-17.253-12.786-19.836-11.652-4.285-27.102 2.327-27.102 19.836v-69.326c0-28.15-39.888-28.15-39.888 0v64.899 78.406c0 15.153-3.204 26.59-13.438 13.848-15.791-22.986-27.386-35.5-49.556-31.641-13.013 2.299-17.974 14.387-9.072 25.852l63.163 92.737c13.523 19.892 15.394 32.549 15.394 50.285 0 5.42 4.451 9.875 9.894 9.875h118.162c5.443 0 9.894-4.455 9.894-9.875v-19.297-11.294c0-25.653 11.708-23.241 15.082-54.598 0-35.301 0-70.574 0-105.876 0-28.15-39.86-28.179-39.86 0v-16.998c.001-28.149-39.887-28.149-39.887.001z" fill="#ffece4" fill-rule="evenodd" data-original="#ffece4" style="" class=""/></g><g><path clip-rule="evenodd" d="m235.793 25.293c0-9.79-7.995-17.793-17.775-17.793h-36.288c9.781 0 17.775 8.002 17.775 17.793v19.637 35.954 20.46c0 9.79-7.995 17.793-17.775 17.793h36.288c9.781 0 17.775-8.002 17.775-17.793z" fill="#dcd9c6" fill-rule="evenodd" data-original="#ffaf5d" style="" class=""/></g><g><path clip-rule="evenodd" d="m378.988 180.46c-3.26-12.259-9.611-22.844-17.974-31.215-17.01-16.97-42.326-24.66-67.161-17.991-8.647 2.299-16.443 6.158-23.219 11.152 23.615-4.994 47.288 2.781 63.419 18.899 8.363 8.343 14.714 18.956 17.974 31.187 1.616 6.044 2.381 12.089 2.381 18.02.028 14.87-4.763 29.115-13.211 40.807 5.273-3.178 11.935-3.717 17.69-1.589 14.147-13.054 22.51-31.612 22.481-51.249.002-5.961-.764-12.005-2.38-18.021z" fill="#b5c1b4" fill-rule="evenodd" data-original="#8bc6f8" style="" class=""/></g><g><path clip-rule="evenodd" d="m451.422 303.56c0-18.842-17.86-25.086-29.682-18.701 5.84 3.15 10.178 9.393 10.178 18.701v105.876c-3.374 31.357-15.082 28.945-15.082 54.598v11.294 19.297c0 5.42-4.451 9.875-9.894 9.875h19.505c5.443 0 9.894-4.455 9.894-9.875v-19.297-11.294c0-25.653 11.708-23.241 15.082-54.598 0-20.119 0-40.239 0-60.33v-6.413-39.133z" fill="#ffddce" fill-rule="evenodd" data-original="#ffddce" style="" class=""/></g><g><path clip-rule="evenodd" d="m492.331 198.479c0-15.522-12.559-28.122-28.066-28.122s-28.095 12.6-28.095 28.122 12.587 28.094 28.095 28.094c15.507 0 28.066-12.571 28.066-28.094z" fill="#b5c1b4" fill-rule="evenodd" data-original="#ff8389" style="" class=""/></g><g><path clip-rule="evenodd" d="m488.419 31.621c-16.726-16.743-43.886-16.743-60.612 0-16.755 16.743-16.755 43.928 0 60.671 16.726 16.771 43.886 16.771 60.612 0 16.755-16.743 16.755-43.929 0-60.671z" fill="#b5c1b4" fill-rule="evenodd" data-original="#ff8389" style="" class=""/></g><g><path clip-rule="evenodd" d="m488.419 92.291c16.755-16.743 16.755-43.928 0-60.671-12.247-12.259-30.108-15.551-45.331-9.847 7.371 1.788 14.373 5.562 20.157 11.351 16.726 16.743 16.726 43.928 0 60.671-4.479 4.484-9.724 7.775-15.281 9.847 14.061 3.434 29.483-.369 40.455-11.351z" fill="#dcd9c6" fill-rule="evenodd" data-original="#ff6677" style="" class=""/></g><g><path clip-rule="evenodd" d="m492.331 198.479c0-15.522-12.559-28.122-28.066-28.122-5.131 0-9.951 1.39-14.09 3.803 9.979 4.285 16.982 14.245 16.982 25.823 0 10.358-5.642 19.438-14.005 24.291 3.402 1.476 7.144 2.299 11.113 2.299 15.507 0 28.066-12.571 28.066-28.094z" fill="#dcd9c6" fill-rule="evenodd" data-original="#ff6677" style="" class=""/></g><g><path clip-rule="evenodd" d="m118.652 280.518c20.242 35.074 8.221 79.939-26.819 100.172-6.52 3.774-13.409 6.442-20.384 8.031 16.415 2.923 33.878.284 49.442-8.712 35.04-20.233 47.061-65.098 26.819-100.172-16.443-28.548-49.187-41.828-79.691-34.876 20.525 3.661 39.378 16.033 50.633 35.557z" fill="#dcd9c6" fill-rule="evenodd" data-original="#ff6677" style="" class=""/></g><g><path d="m200.186 37.43h-78.303c-4.143 0-7.5 3.358-7.5 7.5s3.357 7.5 7.5 7.5h78.303c4.143 0 7.5-3.358 7.5-7.5s-3.357-7.5-7.5-7.5z" fill="#1b1924" data-original="#000000" style="" class=""/><path d="m60.421 52.43h22.821c4.143 0 7.5-3.358 7.5-7.5s-3.357-7.5-7.5-7.5h-22.821c-4.143 0-7.5 3.358-7.5 7.5s3.358 7.5 7.5 7.5z" fill="#1b1924" data-original="#000000" style="" class=""/><path d="m60.421 88.384h78.302c4.143 0 7.5-3.358 7.5-7.5s-3.357-7.5-7.5-7.5h-78.302c-4.143 0-7.5 3.358-7.5 7.5s3.358 7.5 7.5 7.5z" fill="#1b1924" data-original="#000000" style="" class=""/><path d="m200.186 73.384h-22.822c-4.143 0-7.5 3.358-7.5 7.5s3.357 7.5 7.5 7.5h22.822c4.143 0 7.5-3.358 7.5-7.5s-3.357-7.5-7.5-7.5z" fill="#1b1924" data-original="#000000" style="" class=""/><path d="m464.265 162.857c-17.056 0-31.342 12.07-34.794 28.122h-40.97c-.412-4.163-1.159-8.327-2.267-12.457-2.888-10.805-7.983-20.633-14.876-29.02l51.51-51.56c9.464 9.302 21.957 14.427 35.245 14.427 13.46 0 26.109-5.25 35.607-14.773 9.521-9.514 14.765-22.172 14.765-35.641s-5.244-26.126-14.761-35.636c-9.507-9.516-22.153-14.756-35.611-14.756s-26.104 5.241-35.611 14.756c-9.519 9.514-14.761 22.17-14.761 35.636 0 8.487 2.086 16.65 6.007 23.907-.049.046-.101.086-.148.134l-52.86 52.911c-3.244-2.657-6.714-5.083-10.418-7.221-17.813-10.284-38.557-13.01-58.407-7.679-10.963 2.934-20.737 8.11-28.97 14.9l-23.754-23.776c2.59-3.969 4.103-8.704 4.103-13.789v-76.05c-.001-13.946-11.339-25.292-25.276-25.292h-170.213c-13.936 0-25.275 11.346-25.275 25.292v76.051c0 13.946 11.339 25.292 25.275 25.292h59.109c4.143 0 7.5-3.358 7.5-7.5s-3.357-7.5-7.5-7.5h-59.109c-5.666 0-10.275-4.617-10.275-10.292v-76.051c0-5.675 4.609-10.292 10.275-10.292h170.213c5.666 0 10.275 4.617 10.275 10.292v76.051c0 5.675-4.609 10.292-10.275 10.292h-76.46c-4.143 0-7.5 3.358-7.5 7.5s3.357 7.5 7.5 7.5h76.46c3.388 0 6.619-.675 9.574-1.89l24.774 24.798c-14.046 17.157-20.56 40.13-16.213 63.185l-89.873 51.96c-.007.004-.012.009-.019.012-10.58-12.744-24.784-21.912-41.108-26.287-20.835-5.585-42.597-2.713-61.272 8.085-38.565 22.3-51.827 71.831-29.564 110.407 10.774 18.713 28.186 32.095 49.028 37.685 6.957 1.866 14.015 2.789 21.029 2.789 14 0 27.821-3.679 40.271-10.877 38.239-22.085 51.585-70.941 30.118-109.39l85.726-49.562c8.03 19.83 23.788 35.302 43.909 42.95v69.072 3.973c0 3.781-.209 6.552-.479 8.553-15.261-22.099-29.313-38.43-56.319-33.731-8.854 1.564-15.556 6.671-18.385 14.013-2.885 7.486-1.229 16.084 4.543 23.627l63.036 92.551c12.062 17.742 14.097 28.55 14.097 46.067 0 9.581 7.803 17.375 17.394 17.375h118.162c9.592 0 17.395-7.794 17.395-17.375v-30.59c0-11.124 2.321-15.646 5.534-21.903 3.423-6.667 7.684-14.964 9.505-31.893.028-.267.043-.534.043-.802v-25.682c0-4.142-3.357-7.5-7.5-7.5s-7.5 3.358-7.5 7.5v25.273c-1.541 13.883-4.77 20.171-7.892 26.252-3.535 6.885-7.19 14.004-7.19 28.754v30.59c0 1.288-1.097 2.375-2.395 2.375h-118.163c-1.298 0-2.394-1.088-2.394-2.375 0-19.862-2.582-33.745-16.695-54.506l-63.163-92.737c-.088-.128-.18-.255-.275-.378-2.592-3.338-3.52-6.702-2.546-9.23.894-2.318 3.444-4.008 6.979-4.633 17.315-3.015 26.587 5.934 42.088 28.499.105.154.218.304.334.45 5.658 7.044 11.32 9.633 16.826 7.696 6.889-2.424 9.96-10.517 9.96-26.241v-3.973-139.332c0-10.048 6.703-13.613 12.443-13.613 5.741 0 12.444 3.565 12.444 13.613v129.344c0 4.142 3.357 7.5 7.5 7.5s7.5-3.358 7.5-7.5v-60.018c0-10.048 6.704-13.613 12.444-13.613 1.383 0 2.821.213 4.208.668.225.096.453.181.684.254 4.082 1.606 7.552 5.466 7.552 12.691v70.035c0 4.142 3.357 7.5 7.5 7.5s7.5-3.358 7.5-7.5v-53.037c0-10.048 6.703-13.613 12.444-13.613 5.74 0 12.443 3.565 12.443 13.613v63.054c0 4.142 3.357 7.5 7.5 7.5s7.5-3.358 7.5-7.5v-46.056c0-10.056 6.692-13.624 12.423-13.624 3.255 0 6.377 1.182 8.564 3.242 2.57 2.42 3.873 5.913 3.873 10.381v45.545c0 4.142 3.357 7.5 7.5 7.5s7.5-3.358 7.5-7.5v-45.545c0-18.792-13.803-28.624-27.438-28.624-4.634 0-9.285 1.14-13.409 3.379-3.386-13.403-14.98-20.366-26.458-20.366-4.64 0-9.298 1.14-13.427 3.381-1.365-5.412-4.067-9.774-7.56-13.052 10.233-12.091 16.388-26.86 17.888-42.299h40.953c3.454 16.036 17.739 28.094 34.793 28.094 19.611 0 35.566-15.967 35.566-35.594.003-19.642-15.952-35.622-35.563-35.622zm-31.156-125.931c.001-.001.003-.003.004-.004 6.673-6.679 15.552-10.358 25-10.358s18.327 3.679 25.004 10.362c6.686 6.681 10.368 15.57 10.368 25.03s-3.683 18.35-10.377 25.039c-6.672 6.69-15.549 10.375-24.995 10.375s-18.323-3.684-25.004-10.383c-6.686-6.681-10.368-15.57-10.368-25.03s3.682-18.351 10.368-25.031zm-315.968 336.588c-.002.001-.003.001-.004.002-15.216 8.799-32.941 11.137-49.906 6.586-16.968-4.55-31.143-15.446-39.919-30.687-18.135-31.425-7.334-71.768 24.077-89.931 10.131-5.857 21.375-8.85 32.771-8.85 5.706 0 11.451.751 17.111 2.268 16.977 4.55 31.162 15.446 39.943 30.683 18.147 31.445 7.347 71.786-24.073 89.929zm256.734-174.917c-.012 15.778-6.054 31.107-17.201 42.79-1.634-.288-3.29-.435-4.944-.435-4.275 0-8.567.967-12.444 2.871v-43.584c0-18.785-13.806-28.613-27.444-28.613s-27.443 9.828-27.443 28.613v53.925c-15.933-7.82-27.77-22.066-32.486-39.631-8.843-33.083 10.842-67.192 43.888-76.037 15.981-4.292 32.682-2.099 47.022 6.182 14.365 8.293 24.636 21.688 28.923 37.725 1.413 5.266 2.113 10.603 2.134 15.893-.001.061-.009.121-.009.183-.001.04.004.078.004.118zm90.39 20.476c-11.356 0-20.595-9.238-20.595-20.594 0-11.371 9.238-20.622 20.595-20.622 11.341 0 20.566 9.251 20.566 20.622 0 11.355-9.225 20.594-20.566 20.594z" fill="#1b1924" data-original="#000000" style="" class=""/><path d="m94.095 279.787c-9.795-2.627-20.034-1.28-28.839 3.802-18.131 10.486-24.358 33.781-13.882 51.928 5.074 8.791 13.264 15.077 23.06 17.701 3.269.875 6.585 1.309 9.882 1.309 6.585 0 13.088-1.729 18.949-5.112.001-.001.003-.002.005-.003 18.124-10.481 24.352-33.764 13.886-51.894-5.074-8.805-13.263-15.101-23.061-17.731zm1.665 56.64c-5.323 3.072-11.519 3.891-17.444 2.302-5.926-1.587-10.88-5.392-13.951-10.711-6.344-10.99-2.575-25.096 8.396-31.441 3.549-2.049 7.483-3.095 11.467-3.095 1.995 0 4.003.262 5.979.793 5.925 1.59 10.88 5.401 13.954 10.737 6.337 10.978 2.569 25.071-8.401 31.415z" fill="#1b1924" data-original="#000000" style="" class=""/></g></g></g></svg>
