<?xml version="1.0"?>
<svg xmlns="http://www.w3.org/2000/svg" xmlns:xlink="http://www.w3.org/1999/xlink" xmlns:svgjs="http://svgjs.com/svgjs" version="1.1" width="512" height="512" x="0" y="0" viewBox="0 0 512 512" style="enable-background:new 0 0 512 512" xml:space="preserve" class=""><g><g xmlns="http://www.w3.org/2000/svg"><path d="m7.5 135v336h241l23-164-23-172-113-28z" fill="#b5c1b4" data-original="#f5f8f9" style=""/><path d="m489.5 135-115-33-126 33v336h241z" fill="#b5c1b4" data-original="#e3eaee" style="" class=""/><path d="m7.5 45v90h241l19-43-19-47z" fill="#1b1924" data-original="#ff3f5c" style="" class=""/><path d="m248.5 45h241v90h-241z" fill="#1b1924" data-original="#ca2e43" style="" class=""/><path d="m113 0h30v90h-30z" fill="#dcd9c6" data-original="#c2bce0" style="" class=""/><path d="m354 0h30v90h-30z" fill="#dcd9c6" data-original="#a299d1" style="" class=""/><g fill="#6e61b6"><path d="m71.5 188h71v30h-71z" fill="#dcd9c6" data-original="#6e61b6" style="" class=""/><path d="m71.5 288h71v30h-71z" fill="#dcd9c6" data-original="#6e61b6" style="" class=""/><path d="m71.5 388h71v30h-71z" fill="#dcd9c6" data-original="#6e61b6" style="" class=""/><path d="m213 188v30h35.5l10-15-10-15z" fill="#dcd9c6" data-original="#6e61b6" style="" class=""/></g><path d="m248.5 188h35.5v30h-35.5z" fill="#dcd9c6" data-original="#463b84" style="" class=""/><path d="m235.5 370c0 70.14 56.86 127 127 127l16-125-16-129c-70.14 0-127 56.86-127 127z" fill="#ffea80" data-original="#ffea80" style="" class=""/><path d="m362.5 243v254c70.14 0 127-56.86 127-127s-56.86-127-127-127z" fill="#ffcc66" data-original="#ffcc66" style="" class=""/><path d="m343.712 401.636-12.553-8.212-16.424 25.104 12.553 8.212c7.886 5.159 14.138 7.727 20.965 8.94v16.32h14.247l7-21-7-24.338c-9.335.041-11.734-.412-18.788-5.026z" fill="#53e261" data-original="#53e261" style="" class=""/><path d="m354.278 343.001c-.366-.288-.759-1.524-.483-3.372.399-2.689 2.269-6.372 6.217-7.901.81-.314 1.645-.528 2.488-.698l7-23.03-7-21h-14.247v17.147c-12.848 5.358-22.062 17.161-24.132 31.065-1.857 12.483 2.495 24.219 11.643 31.394 7.222 5.665 16.828 10.015 26.736 13.772l7-15.379-7-17.144c-3.231-1.552-6.082-3.175-8.222-4.854z" fill="#53e261" data-original="#53e261" style="" class=""/><path d="m382.395 335.204 13.204 7.117 14.234-26.408-13.204-7.117c-3.695-1.992-10.285-5.065-18.376-6.813v-14.983h-15.753v44.03c8.351-1.688 17.907 3.102 19.895 4.174z" fill="#00c100" data-original="#00c100" style="" class=""/><path d="m379.781 354.752c-5.849-2.067-12.063-4.389-17.281-6.897v32.523c2.42.918 4.857 1.801 7.283 2.659 5.852 2.068 8.332 6.014 7.371 11.726-.737 4.389-4.517 11.833-14.001 11.896-.228.001-.433.001-.653.002v45.339h15.753v-18.015c14.631-5.322 25.778-18.136 28.486-34.247 3.365-20.018-7.468-38.096-26.958-44.986z" fill="#00c100" data-original="#00c100" style="" class=""/><path d="m250.5 370c0-61.757 50.243-112 112-112l18-16-18-14c-78.299 0-142 63.701-142 142s63.701 142 142 142l11-14-11-16c-61.757 0-112-50.243-112-112z" fill="#ffcc66" data-original="#ffcc66" style="" class=""/><path d="m362.5 228v30c61.757 0 112 50.243 112 112s-50.243 112-112 112v30c78.299 0 142-63.701 142-142s-63.701-142-142-142z" fill="#ffa64d" data-original="#ffa64d" style=""/></g></g></svg>
