<?xml version="1.0"?>
<svg xmlns="http://www.w3.org/2000/svg" xmlns:xlink="http://www.w3.org/1999/xlink" xmlns:svgjs="http://svgjs.com/svgjs" version="1.1" width="512" height="512" x="0" y="0" viewBox="0 0 512 512" style="enable-background:new 0 0 512 512" xml:space="preserve" class=""><g><path xmlns="http://www.w3.org/2000/svg" d="m48 411.96v-311.92a30 30 0 0 1 30-30h-30a30 30 0 0 0 -30 30v311.92a30 30 0 0 0 30 30h30a30 30 0 0 1 -30-30z" fill="#b5c1b4" data-original="#d4e1f4" style="" class=""/><g xmlns="http://www.w3.org/2000/svg" fill="#0635c9"><path d="m464 64.042h-416a36.04 36.04 0 0 0 -36 36v311.916a36.04 36.04 0 0 0 36 36h416a36.04 36.04 0 0 0 36-36v-311.916a36.04 36.04 0 0 0 -36-36zm0 371.916h-416a24.027 24.027 0 0 1 -24-24v-270.185h349a6 6 0 0 0 0-12h-349v-29.731a24.027 24.027 0 0 1 24-24h416a24.027 24.027 0 0 1 24 24v29.731h-75a6 6 0 0 0 0 12h75v270.185a24.027 24.027 0 0 1 -24 24z" fill="#1b1924" data-original="#0635c9" style="" class=""/><path d="m48.835 87.1a16.405 16.405 0 1 0 16.405 16.4 16.424 16.424 0 0 0 -16.405-16.4zm0 20.81a4.405 4.405 0 1 1 4.405-4.41 4.41 4.41 0 0 1 -4.405 4.405z" fill="#1b1924" data-original="#0635c9" style="" class=""/><path d="m85.335 87.1a16.405 16.405 0 1 0 16.405 16.4 16.424 16.424 0 0 0 -16.405-16.4zm0 20.81a4.405 4.405 0 1 1 4.405-4.41 4.41 4.41 0 0 1 -4.405 4.405z" fill="#1b1924" data-original="#0635c9" style="" class=""/><path d="m121.835 87.1a16.405 16.405 0 1 0 16.405 16.4 16.424 16.424 0 0 0 -16.405-16.4zm0 20.81a4.405 4.405 0 1 1 4.405-4.405 4.41 4.41 0 0 1 -4.405 4.4z" fill="#1b1924" data-original="#0635c9" style="" class=""/><path d="m45.3 183.038a6 6 0 0 0 -6 6v6.295a6 6 0 0 0 12 0v-6.295a6 6 0 0 0 -6-6z" fill="#1b1924" data-original="#0635c9" style="" class=""/><path d="m45.3 212.333a6 6 0 0 0 -6 6v76a6 6 0 0 0 12 0v-76a6 6 0 0 0 -6-6z" fill="#1b1924" data-original="#0635c9" style="" class=""/></g><path xmlns="http://www.w3.org/2000/svg" d="m360.405 365.862a30.268 30.268 0 0 0 -.719-30.985l-77.563-134.8q-.052-.091-.108-.18a30.646 30.646 0 0 0 -52.03 0q-.055.089-.108.18l-77.563 134.8a30.646 30.646 0 0 0 26.073 46.752h155.226a30.268 30.268 0 0 0 26.792-15.767zm-198.319-5.826a18.417 18.417 0 0 1 .472-18.908c.037-.059.073-.119.108-.179l77.557-134.787a18.646 18.646 0 0 1 31.554 0l77.557 134.787c.035.06.071.12.108.179a18.646 18.646 0 0 1 -15.829 28.5h-155.226a18.418 18.418 0 0 1 -16.301-9.592z" fill="#b5c1b4" data-original="#1ae5be" style="" class=""/><path xmlns="http://www.w3.org/2000/svg" d="m256 241.177a6 6 0 0 0 -6 6v66.567a6 6 0 0 0 12 0v-66.567a6 6 0 0 0 -6-6z" fill="#b5c1b4" data-original="#1ae5be" style="" class=""/><path xmlns="http://www.w3.org/2000/svg" d="m256 329.76a6 6 0 0 0 -6 6v6.327a6 6 0 0 0 12 0v-6.327a6 6 0 0 0 -6-6z" fill="#b5c1b4" data-original="#1ae5be" style="" class=""/></g></svg>
